# xmcd CD database file
#
# Track frame offsets:
#	150
#	30894
#	60170
#	84705
#	103554
#	130075
#	144202
#	166357
#
# Disc length: 2474 seconds
#
# Revision: 0
# Processed by: cddbd v1.4PL0 Copyright (c) Steve Scherf et al.
# Submitted via: CDex 1.51
#
DISCID=5509a808
DTITLE=Buddy DeFranco - Mr. Lucky
DYEAR=1981
DGENRE=Jazz
TTITLE0=Mr. Lucky
TTITLE1=Bye, bye blackbird
TTITLE2=Mar descancado
TTITLE3=In a sentimental mood
TTITLE4=Your smile
TTITLE5=Close enough for love
TTITLE6=Danielle
TTITLE7=Lolita's theme
EXTD=YEAR: 1981
EXTT0=
EXTT1=
EXTT2=
EXTT3=
EXTT4=
EXTT5=
EXTT6=
EXTT7=
PLAYORDER=
